<?xml version="1.0" encoding="utf-8"?>
<!-- Generator: Adobe Illustrator 26.5.1, SVG Export Plug-In . SVG Version: 6.00 Build 0)  -->
<svg version="1.1" id="Ebene_1" xmlns="http://www.w3.org/2000/svg" xmlns:xlink="http://www.w3.org/1999/xlink" x="0px" y="0px"
	 viewBox="0 0 14.1 18.8" style="enable-background:new 0 0 14.1 18.8;" xml:space="preserve">
<style type="text/css">
	.st0{fill:#5F5F5F;}
</style>
<g id="door-2" transform="translate(-423 -13.167)">
	<path id="Ausschluss_1" class="st0" d="M436.3,32h-12.6c-0.4,0-0.8-0.4-0.8-0.8V14c0-0.4,0.4-0.8,0.8-0.8h12.6
		c0.4,0,0.8,0.4,0.8,0.8v17.3C437.1,31.6,436.8,32,436.3,32z M433,22c-0.6,0-1,0.4-1,1v2c0,0.6,0.4,1,1,1s1-0.4,1-1v-2
		C434,22.4,433.6,22,433,22z"/>
</g>
</svg>
