<svg id="gear" xmlns="http://www.w3.org/2000/svg" width="24" height="24" viewBox="0 0 24 24">
  <path id="Pfad_68097" data-name="Pfad 68097" d="M22,10H20.769a8.943,8.943,0,0,0-1.156-2.785l.872-.872a2,2,0,1,0-2.828-2.828l-.872.872A8.943,8.943,0,0,0,14,3.231V2a2,2,0,0,0-4,0V3.231A8.943,8.943,0,0,0,7.215,4.387l-.872-.872A2,2,0,1,0,3.515,6.343l.872.872A8.943,8.943,0,0,0,3.231,10H2a2,2,0,0,0,0,4H3.231a8.943,8.943,0,0,0,1.156,2.785l-.872.872a2,2,0,1,0,2.828,2.828l.872-.872A8.943,8.943,0,0,0,10,20.769V22a2,2,0,0,0,4,0V20.769a8.943,8.943,0,0,0,2.785-1.156l.872.872a2,2,0,1,0,2.828-2.828l-.872-.872A8.943,8.943,0,0,0,20.769,14H22a2,2,0,0,0,0-4ZM12,16a4,4,0,1,1,4-4A4,4,0,0,1,12,16Z" fill="#212121"/>
</svg>
