<?xml version="1.0" encoding="utf-8"?>
<!-- Generator: Adobe Illustrator 26.5.1, SVG Export Plug-In . SVG Version: 6.00 Build 0)  -->
<svg version="1.1" id="Ebene_1" xmlns="http://www.w3.org/2000/svg" xmlns:xlink="http://www.w3.org/1999/xlink" x="0px" y="0px"
	 viewBox="0 0 24 24" style="enable-background:new 0 0 24 24;" xml:space="preserve">
<style type="text/css">
	.st0{fill:#212121;}
</style>
<path id="Pfad_68060" class="st0" d="M23.5,21.3l-6.1-6.1c3.1-4.3,2.1-10.3-2.3-13.4S4.9-0.3,1.8,4S-0.3,14.4,4,17.4
	c3.3,2.4,7.8,2.4,11.1,0l6.1,6.1c0.6,0.7,1.6,0.7,2.3,0.2s0.7-1.6,0.2-2.3C23.6,21.4,23.6,21.3,23.5,21.3L23.5,21.3z M1.7,9.6
	c0-4.4,3.6-8,8-8s8,3.6,8,8s-3.6,8-8,8S1.7,14,1.7,9.6z"/>
</svg>
