<?xml version="1.0" encoding="utf-8"?>
<!-- Generator: Adobe Illustrator 26.5.1, SVG Export Plug-In . SVG Version: 6.00 Build 0)  -->
<svg version="1.1" id="Ebene_1" xmlns="http://www.w3.org/2000/svg" xmlns:xlink="http://www.w3.org/1999/xlink" x="0px" y="0px"
	 viewBox="0 0 23.2 23.4" style="enable-background:new 0 0 23.2 23.4;" xml:space="preserve">
<style type="text/css">
	.st0{fill:#212121;}
</style>
<path id="Pfad_68063" class="st0" d="M22.9,11.7c0-0.3-0.2-0.6-0.4-0.7L1.2,0.1C0.8-0.1,0.3,0,0.1,0.4C0,0.6,0,0.8,0,1l2.4,9
	l9.3,1.7l-9.3,1.7l-2.4,9C0,22.7,0,23,0.2,23.2c0,0,0,0,0.1,0.1c0.2,0.2,0.6,0.2,0.9,0.1l21.2-10.9C22.7,12.3,22.9,12,22.9,11.7
	L22.9,11.7z"/>
</svg>
